<svg id="svg2" xmlns="http://www.w3.org/2000/svg" viewBox="0 0 702.69329 702.6933">
  <defs>
    <style>
      .cls-1 {
        fill: #fff;
      }
    </style>
  </defs>
  <g>
    <path class="cls-1" d="M501.09424,875.22852a329.13319,329.13319,0,1,1,232.73193-96.40137A326.97553,326.97553,0,0,1,501.09424,875.22852Z" transform="translate(-149.74735 -194.74887)"/>
    <path d="M501.094,221.31134c179.37342,0,324.78418,145.41077,324.78418,324.78418S680.46741,870.87971,501.094,870.87971,176.3098,725.46893,176.3098,546.09552,321.72058,221.31134,501.094,221.31134m0-8.69733a332.4648,332.4648,0,1,0,129.80872,26.21021A331.40143,331.40143,0,0,0,501.094,212.614Z" transform="translate(-149.74735 -194.74887)"/>
  </g>
  <g id="g10">
    <g id="g16">
      <g id="g18">
        <g id="g66">
          <path id="path68" d="M233.83268,608.43285s-13.95066-69.332,59.832-153.29733C367.454,371.17285,422.81534,340.64087,482.60733,324.73686c0,0-.05066.03066-.104.06134.076-.02.152-.04134.22667-.06134,0,0-46.96934,27.356-46.96934,68.696,0,12,1.91333,20.24534,4.564,25.75334,3.51734,7.31734,9.088,9.80533,14.08934,9.82932,4.21466.024,6.68133-1.708,12.01332-3.77867V649.1355a19.67268,19.67268,0,0,0,3.81735,7.88667c4.66666,6.15066,12.00134,13.65733,25.78,13.73333,23.50533-.15066,53.06934-26.70133,53.06934-26.70133V462.76884c0-18.44266-13.19867-40.70667-27.18535-48.34532,0,0,1.90534-.12,4.99067-.11867,9.23465-.00267,29.04532,1.05332,40.084,9.48667,3.06667-3.55332,52.55733-59.55332,140.62133-76.78533,0,0-.016.01733-.04269.04933.08134-.016.16-.03332.24134-.04933,0,0-48.70935,57.35465-63.976,85.79731-2.71334.16134-3.10934,53.96134-2.65735,107.72.43868,51.89333,1.67065,103.75733,2.38533,107.34533,0,0,5.19735,7.72533,18.432,7.792,14.928.076,40.084-9.59333,79.524-51.05066l-.00134.00133.00134-.00133s-1.04,2.36133-3.13334,6.544c-11.30265,22.584-53.3,98.29466-127.9,142.3l-.004-.004-.00668.004-48.38667-40.924-1.236-1.032-52.77334,55.956s-.03066-.00267-.08-.008l-.00668.008S387.67525,757.27682,337.42593,684.7675c0,0,.09466.03467.23733.08666-.02133-.02933-.04266-.05733-.06266-.08666a53.03188,53.03188,0,0,0,16.19734,3.12266c10.06266.184,20.62933-3.492,20.62933-20.30533V497.11818c0-8.70533-5.99334-18.47066-19.14933-18.43333-11.83193.03067-28.81859,7.992-52.01326,31.79067C254.286,560.72218,233.946,608.43285,233.946,608.43285s-.01334-.06534-.03467-.18134c-.048.112-.07867.18134-.07867.18134M501.094,897.44217A351.34533,351.34533,0,1,0,252.654,794.5355a349.0489,349.0489,0,0,0,248.44,102.90667" transform="translate(-149.74735 -194.74887)"/>
        </g>
      </g>
    </g>
  </g>
</svg>
